<?xml version="1.0" encoding="UTF-8"?>
<!-- Generator: Adobe Illustrator 13.0.2, SVG Export Plug-In . SVG Version: 6.00 Build 14948)  -->
<!DOCTYPE svg PUBLIC "-//W3C//DTD SVG 1.1//EN" "http://www.w3.org/Graphics/SVG/1.1/DTD/svg11.dtd">
<svg version="1.1" id="Layer_1" xmlns="http://www.w3.org/2000/svg" xmlns:xlink="http://www.w3.org/1999/xlink" x="0px" y="0px" width="720.001px" height="720.001px" viewBox="-305.876 -305.876 720.001 720.001" enable-background="new -305.876 -305.876 720.001 720.001" xml:space="preserve">
<g>
	<g>
		<path fill="#FFFFFF" d="M54.113-301.786c196.043,0,355.922,159.875,355.922,355.906c0,196.035-159.879,355.914-355.922,355.914    c-196.023,0-355.898-159.879-355.898-355.914C-301.786-141.911-141.911-301.786,54.113-301.786"/>
		<path fill="none" stroke="#C30014" stroke-width="8.1811" stroke-miterlimit="2.613" d="M54.113-301.786    c196.043,0,355.922,159.875,355.922,355.906c0,196.035-159.879,355.914-355.922,355.914    c-196.023,0-355.898-159.879-355.898-355.914C-301.786-141.911-141.911-301.786,54.113-301.786z"/>
		<path fill="#FFFFFF" d="M54.652-223.075c152.367,0,276.656,124.277,276.656,276.656S207.019,330.23,54.652,330.23    c-152.375,0-276.648-124.27-276.648-276.648S-97.723-223.075,54.652-223.075"/>
		<path fill="none" stroke="#004B85" stroke-width="8.1811" stroke-miterlimit="2.613" d="M54.652-223.075    c152.367,0,276.656,124.277,276.656,276.656S207.019,330.23,54.652,330.23c-152.375,0-276.648-124.27-276.648-276.648    S-97.723-223.075,54.652-223.075z"/>
		<path fill="#FFFFFF" d="M54.652-223.075c152.367,0,276.656,124.277,276.656,276.656S207.019,330.23,54.652,330.23    c-152.375,0-276.648-124.27-276.648-276.648S-97.723-223.075,54.652-223.075"/>
		<path fill="none" stroke="#C30014" stroke-width="8.1811" stroke-miterlimit="2.613" d="M54.652-223.075    c152.367,0,276.656,124.277,276.656,276.656S207.019,330.23,54.652,330.23c-152.375,0-276.648-124.27-276.648-276.648    S-97.723-223.075,54.652-223.075z"/>
		<path fill="#001773" d="M369.566,39.226c-1.043,0-2.039-0.191-2.941-0.578c-0.863-0.332-1.668-0.871-2.41-1.609    c-0.707-0.723-1.246-1.543-1.609-2.461c-0.383-0.871-0.57-1.836-0.57-2.898c0-1.371,0.324-2.609,0.973-3.707    c0.742-1.203,1.676-2.129,2.754-2.754c1.262-0.699,2.539-1.051,3.805-1.051c1.242,0,2.496,0.352,3.738,1.051    c1.137,0.645,2.031,1.559,2.719,2.754c0.691,1.141,1.047,2.375,1.047,3.707c0,1.352-0.355,2.613-1.047,3.805    c-0.66,1.148-1.559,2.066-2.719,2.766C372.152,38.902,370.906,39.226,369.566,39.226"/>
		<path fill="#001773" d="M-261.215,40.91c-1.043,0-2.02-0.191-2.934-0.578c-0.867-0.332-1.676-0.879-2.41-1.609    c-0.719-0.723-1.266-1.543-1.605-2.453c-0.387-0.879-0.586-1.844-0.586-2.91c0-1.363,0.328-2.602,0.984-3.703    c0.75-1.203,1.672-2.137,2.754-2.758c1.266-0.695,2.535-1.047,3.797-1.047c1.25,0,2.5,0.352,3.746,1.047    c1.125,0.641,2.031,1.562,2.715,2.758c0.691,1.141,1.051,2.383,1.051,3.703c0,1.348-0.359,2.617-1.051,3.812    c-0.66,1.137-1.562,2.055-2.715,2.762C-258.614,40.582-259.864,40.91-261.215,40.91"/>
		<path fill="#001773" d="M339.753-24.149l37.258-9.309l6.625,26.617l-4.625,1.145l-5.379-21.59L362.5-24.497l4.969,19.941    l-4.344,1.086l-4.977-19.941l-12.496,3.117l5.48,22.027l-4.648,1.156L339.753-24.149z M351.023-37.176l1.645,4.797    c-4.484,1.309-8.531,1.008-12.121-0.895c-3.578-1.895-6.137-5.07-7.664-9.516c-1.762-5.113-1.391-9.734,1.102-13.84    c2.469-4.105,6.797-7.234,12.961-9.355c5.684-1.961,10.723-1.988,15.102-0.105c4.391,1.891,7.48,5.43,9.27,10.602    c1.414,4.105,1.5,7.852,0.277,11.203c-1.219,3.363-3.578,5.871-7.094,7.547l-1.676-4.836c2.25-1.289,3.738-3.023,4.418-5.199    c0.695-2.176,0.57-4.633-0.383-7.398c-1.266-3.695-3.539-6.105-6.828-7.25c-3.258-1.137-7.254-0.906-11.957,0.711    c-4.438,1.531-7.645,3.82-9.594,6.859c-1.949,3.047-2.324,6.305-1.129,9.805c1.031,2.973,2.793,5.102,5.301,6.355    C345.144-36.426,347.925-36.25,351.023-37.176 M347.64-106.231l7.016,13.172c1.129,2.133,1.855,3.758,2.227,4.859    c0.332,1.113,0.512,2.176,0.512,3.195c-0.023,1.852-0.539,3.523-1.531,5.012c-1,1.492-2.441,2.734-4.34,3.738    c-1.816,0.98-3.598,1.418-5.312,1.332c-1.715-0.102-3.352-0.723-4.898-1.883c0.34,1.516,0.195,2.785-0.363,3.812    c-0.586,1.023-1.883,2.16-3.898,3.41l-5.383,3.379c-1.145,0.715-1.961,1.344-2.422,1.895c-0.469,0.559-0.703,1.141-0.691,1.75    l-0.945,0.508l-2.828-5.336c0.48-0.812,1.824-1.918,4.059-3.32c0.066-0.023,0.098-0.043,0.145-0.062l4.262-2.637    c2.184-1.367,3.402-2.633,3.648-3.816c0.234-1.164-0.504-3.387-2.227-6.641l-3.98-7.477l-14.52,7.738l-2.41-4.57L347.64-106.231z     M346.066-99.586l-11.484,6.121l4.184,7.887c1.52,2.848,3.055,4.602,4.594,5.293c1.527,0.695,3.383,0.461,5.535-0.691    c2.004-1.062,3.121-2.367,3.371-3.922c0.246-1.551-0.418-3.82-2.02-6.805L346.066-99.586z M297.078-115.102l32.219-20.953    l14.887,23l-3.988,2.602l-12.102-18.656l-9.617,6.258l11.184,17.238l-3.762,2.449l-11.172-17.242l-10.801,7.031l12.328,19.027    l-4.016,2.625L297.078-115.102z M299.781-165.407l-25.43,20.617l-3.008-3.73l29.828-24.211l4.695,5.809l-16.836,25.926    c-0.473,0.742-0.852,1.309-1.137,1.703c-0.266,0.391-0.527,0.715-0.754,0.996c0.586-0.293,1.117-0.551,1.605-0.758    c0.48-0.207,0.941-0.398,1.391-0.559l29.027-10.848l4.715,5.82l-29.84,24.207l-3.184-3.93l25.41-20.625    c-0.504,0.246-1.012,0.5-1.551,0.73c-0.547,0.234-1.086,0.457-1.625,0.668l-29.027,10.82l-3.105-3.844l16.746-26.012    c0.273-0.441,0.586-0.895,0.922-1.344C298.968-164.442,299.351-164.915,299.781-165.407 M266.121-197.965l-22.305,23.977    l-3.508-3.285l26.195-28.129l5.449,5.09l-13.082,28.027c-0.367,0.801-0.668,1.418-0.883,1.844    c-0.219,0.422-0.426,0.785-0.602,1.098c0.539-0.371,1.02-0.715,1.473-0.973c0.457-0.281,0.883-0.539,1.305-0.758l27.238-14.785    l5.469,5.109l-26.191,28.133l-3.695-3.453l22.312-23.969c-0.457,0.316-0.941,0.637-1.457,0.949    c-0.492,0.301-0.992,0.598-1.504,0.879l-27.242,14.766l-3.586-3.371l12.965-28.094c0.195-0.477,0.441-0.965,0.707-1.473    C265.453-196.879,265.769-197.407,266.121-197.965 M217.613-216.344c3.652-5.191,7.82-8.348,12.496-9.426    c4.691-1.078,9.367,0.027,14.039,3.301c4.664,3.266,7.281,7.281,7.852,12.051c0.598,4.762-0.953,9.766-4.586,14.98    c-3.629,5.211-7.789,8.367-12.477,9.438c-4.672,1.09-9.336,0.008-13.984-3.25c-4.676-3.289-7.316-7.324-7.906-12.102    C212.464-206.133,213.976-211.133,217.613-216.344 M222.042-213.247c-2.832,4.047-4.105,7.844-3.844,11.43    c0.285,3.578,2.066,6.523,5.359,8.828c3.266,2.297,6.617,2.957,10.055,1.98c3.434-0.992,6.566-3.492,9.383-7.535    c2.832-4.035,4.121-7.848,3.859-11.414c-0.266-3.566-2.039-6.488-5.301-8.781c-3.277-2.312-6.656-2.988-10.105-2.027    C228.011-219.801,224.863-217.297,222.042-213.247 M206.57-216.715l4.504,2.301c-2.32,4.07-5.438,6.664-9.336,7.801    c-3.898,1.125-7.938,0.621-12.105-1.516c-4.82-2.445-7.758-6.027-8.82-10.715c-1.055-4.684-0.117-9.934,2.852-15.75    c2.719-5.375,6.332-8.902,10.812-10.598c4.449-1.695,9.141-1.305,13.992,1.184c3.859,1.973,6.527,4.598,7.977,7.855    c1.453,3.27,1.492,6.727,0.117,10.379l-4.547-2.324c0.715-2.488,0.582-4.762-0.43-6.805c-1-2.047-2.793-3.73-5.402-5.059    c-3.469-1.777-6.77-1.93-9.926-0.469c-3.156,1.465-5.859,4.41-8.113,8.84c-2.137,4.199-2.852,8.07-2.152,11.609    c0.703,3.551,2.711,6.156,5.992,7.84c2.793,1.426,5.531,1.73,8.207,0.887C202.851-212.086,204.988-213.907,206.57-216.715     M133.343-231.766l11.852-36.59l24.52,7.98l-1.492,4.598l-19.551-6.367l-3.559,10.98l17.082,5.555l-1.461,4.469l-17.066-5.559    l-5.375,16.547L133.343-231.766z M96.625-259.02c1.09-6.25,3.539-10.867,7.332-13.836c3.801-2.957,8.496-3.941,14.121-2.949    c5.598,0.984,9.66,3.516,12.199,7.594c2.547,4.078,3.258,9.254,2.156,15.52c-1.113,6.266-3.535,10.871-7.328,13.848    c-3.766,2.957-8.457,3.949-14.055,2.957c-5.625-0.988-9.691-3.523-12.25-7.613C96.238-247.579,95.511-252.762,96.625-259.02     M101.921-258.079c-0.848,4.855-0.406,8.844,1.352,11.977c1.754,3.125,4.605,5.043,8.555,5.742s7.258-0.133,9.953-2.469    c2.699-2.348,4.488-5.945,5.352-10.801c0.844-4.863,0.391-8.867-1.332-11.98c-1.734-3.121-4.578-5.031-8.504-5.723    c-3.953-0.695-7.301,0.113-10.016,2.449C104.554-266.547,102.781-262.942,101.921-258.079 M58.371-242.45l0.586-33.797    l-12.121-0.219l0.082-4.672l29.477,0.516l-0.094,4.684l-12.102-0.215l-0.594,33.789L58.371-242.45z M13.527-240.282l-2.68-38.379    l5.699-0.398l19.828,26.625c0.445,0.578,0.832,1.125,1.156,1.652c0.34,0.508,0.602,1.004,0.812,1.461l-2.176-31.113l4.973-0.355    l2.684,38.391l-5.648,0.395l-20.246-26.992c-0.309-0.418-0.598-0.852-0.863-1.301c-0.266-0.445-0.527-0.934-0.773-1.441    l2.176,31.113L13.527-240.282z M-17.383-233.438l-8.637-37.488l26.676-6.164l1.066,4.648l-21.637,5.012l2.57,11.199l19.988-4.621    l1.02,4.371l-19.992,4.625l2.891,12.574l22.07-5.109l1.086,4.684L-17.383-233.438z M-63.008-253.598l10.102,31.168l-4.562,1.492    l-11.859-36.59l7.09-2.316l18.125,25.043c0.52,0.719,0.918,1.27,1.168,1.672c0.273,0.391,0.496,0.75,0.668,1.062    c-0.066-0.652-0.113-1.25-0.129-1.777c-0.023-0.52-0.039-1.02-0.023-1.504l0.289-31.047l7.121-2.309l11.855,36.59l-4.805,1.562    l-10.105-31.18c0.055,0.57,0.098,1.145,0.117,1.734c0.035,0.586,0.043,1.172,0.051,1.75l-0.32,31.035l-4.695,1.531l-18.23-24.992    c-0.32-0.395-0.625-0.855-0.934-1.336C-62.391-252.508-62.692-253.032-63.008-253.598 M-75.489-211.958l-13.727-30.883    l-11.074,4.938l-1.898-4.266l26.938-12.016l1.891,4.266l-11.062,4.941l13.715,30.875L-75.489-211.958z M-131.774-223.993    l12.629-7.895c2.047-1.289,3.617-2.148,4.68-2.57c1.082-0.426,2.145-0.676,3.16-0.75c1.84-0.102,3.539,0.301,5.082,1.191    c1.555,0.898,2.898,2.254,4.035,4.062c1.098,1.766,1.656,3.508,1.684,5.23c0.027,1.715-0.477,3.391-1.523,5.035    c1.484-0.441,2.762-0.406,3.82,0.102c1.062,0.5,2.281,1.719,3.664,3.641l3.738,5.148c0.793,1.094,1.484,1.863,2.062,2.289    c0.582,0.426,1.176,0.613,1.781,0.566l0.578,0.91l-5.109,3.199c-0.844-0.426-2.035-1.703-3.586-3.832    c-0.039-0.059-0.059-0.105-0.078-0.133l-2.926-4.078c-1.508-2.094-2.855-3.219-4.039-3.379c-1.184-0.164-3.344,0.738-6.469,2.699    l-7.164,4.48l8.719,13.973l-4.383,2.738L-131.774-223.993z M-125.04-222.875l6.891,11.062l7.555-4.734    c2.734-1.711,4.383-3.363,4.961-4.949c0.574-1.59,0.215-3.422-1.07-5.496c-1.207-1.938-2.578-2.965-4.152-3.098    c-1.555-0.133-3.77,0.695-6.629,2.488L-125.04-222.875z M-140.458-169.286l-12.398-39.113l4.543-3.555l34.906,21.496l-4.449,3.484    l-10.277-6.543l-11.898,9.316l3.828,11.582L-140.458-169.286z M-141.536-188.735l9.438-7.383l-15.117-9.711L-141.536-188.735z     M-157.118-152.942l-26.195-28.137l10.336-9.656c1.684-1.57,3.039-2.672,4.062-3.332c1.027-0.652,2.062-1.117,3.109-1.371    c1.727-0.438,3.465-0.348,5.207,0.316c1.75,0.656,3.391,1.797,4.922,3.449c1.449,1.555,2.426,3.227,2.938,5    c0.508,1.758,0.508,3.547-0.004,5.355c-0.285,1.035-0.812,2.062-1.559,3.086c-0.75,1.016-2.168,2.508-4.258,4.453l-5.793,5.414    l11.043,11.855L-157.118-152.942z M-167.508-171.758l6.406-5.988c2.219-2.078,3.438-3.898,3.66-5.418    c0.215-1.555-0.477-3.191-2.086-4.918c-1.555-1.668-3.105-2.461-4.664-2.359c-1.551,0.094-3.344,1.09-5.398,3.008l-6.691,6.25    L-167.508-171.758z M-178.149-128.633l-28.98-25.242l17.957-20.691l3.605,3.125l-14.574,16.801l8.656,7.547l13.469-15.52    l3.375,2.945l-13.461,15.52l9.719,8.465l14.863-17.133l3.617,3.152L-178.149-128.633z M-198.145-99.02l-32.207-20.949    l7.961-12.289c2.922-4.504,6.504-7.074,10.723-7.723c4.223-0.637,8.875,0.691,13.941,3.98c5.223,3.402,8.488,7.297,9.789,11.664    c1.309,4.367,0.523,8.758-2.359,13.195L-198.145-99.02z M-218.903-129.469l-4.891,7.543l24.551,15.961l4.891-7.535    c2.086-3.219,2.621-6.34,1.602-9.352c-1.023-3.02-3.578-5.844-7.684-8.516c-3.91-2.547-7.457-3.668-10.629-3.34    C-214.235-134.383-216.856-132.637-218.903-129.469 M-211.985-73.977l-5.129-2.734l2.508-4.734l5.133,2.738L-211.985-73.977z     M-237.008-46.84l1.875-4.676c2.594,0.996,5.004,0.965,7.211-0.086c2.199-1.043,3.863-2.973,4.988-5.77    c1.117-2.766,1.418-5.172,0.902-7.23c-0.52-2.066-1.781-3.496-3.777-4.301c-2.727-1.105-5.992,1.043-9.828,6.438    c-0.223,0.328-0.387,0.578-0.52,0.75c-3.105,4.379-5.676,7.066-7.707,8.051c-2.039,0.996-4.352,0.957-6.953-0.102    c-3.168-1.277-5.25-3.477-6.242-6.578c-0.98-3.098-0.703-6.586,0.852-10.441c1.594-3.945,3.859-6.637,6.785-8.07    c2.938-1.441,6.168-1.469,9.715-0.062l-1.84,4.633c-2.449-0.801-4.605-0.73-6.469,0.207c-1.871,0.945-3.305,2.695-4.324,5.215    c-0.961,2.375-1.203,4.484-0.746,6.32c0.473,1.84,1.578,3.117,3.293,3.812c2.762,1.117,6-0.988,9.719-6.316    c0.559-0.785,0.992-1.383,1.297-1.809c0.047-0.094,0.156-0.25,0.32-0.465c2.473-3.465,4.496-5.613,6.062-6.438    c1.191-0.641,2.461-0.973,3.809-0.996c1.363-0.039,2.746,0.23,4.168,0.809c3.426,1.387,5.66,3.727,6.699,7.004    c1.043,3.285,0.703,7.031-0.98,11.219c-1.746,4.332-4.195,7.273-7.355,8.797C-229.219-45.395-232.864-45.364-237.008-46.84     M-228.008-32.008l-5.504-1.895l1.746-5.07l5.484,1.898L-228.008-32.008z M-250.852-2.317l-23.121-5.773l1.266-5.07l23.184,5.789    c3.484,0.871,6.258,0.746,8.305-0.387s3.48-3.316,4.293-6.562c0.801-3.207,0.551-5.816-0.754-7.809    c-1.297-2.012-3.672-3.441-7.109-4.297l-23.172-5.793l1.27-5.09l23.125,5.781c4.988,1.234,8.434,3.465,10.359,6.684    c1.918,3.219,2.258,7.328,1.016,12.324c-1.168,4.676-3.293,7.848-6.406,9.551C-241.704-1.274-245.793-1.047-250.852-2.317"/>
		<path fill="#FFFFFF" d="M53.98,37.265c97.582,0,177.156,57.449,177.156,127.883c0,70.445-79.574,127.891-177.156,127.891    s-177.168-57.445-177.168-127.891C-123.192,94.714-43.606,37.265,53.98,37.265"/>
		<path fill="none" stroke="#C30014" stroke-width="16.3556" stroke-miterlimit="2.613" d="M53.98,37.265    c97.582,0,177.156,57.449,177.156,127.883c0,70.445-79.574,127.891-177.156,127.891s-177.168-57.445-177.168-127.891    C-123.192,94.714-43.606,37.265,53.98,37.265z"/>
		<path fill="none" stroke="#C30014" stroke-width="8.1745" stroke-miterlimit="2.613" d="M54.304,37.265    c41.156,0,74.711,57.449,74.711,127.883c0,70.445-33.566,127.891-74.711,127.891c-41.152,0-74.719-57.445-74.719-127.891    C-20.415,94.714,13.152,37.265,54.304,37.265z"/>
		<path fill="none" stroke="#C30014" stroke-width="8.5603" stroke-miterlimit="2.613" d="M53.625,37.265    c74.32,0,134.93,57.449,134.93,127.883c0,70.445-60.609,127.891-134.93,127.891S-81.313,235.593-81.313,165.148    C-81.313,94.714-20.7,37.265,53.625,37.265z"/>
		<path fill="none" stroke="#001773" stroke-width="8.2077" stroke-miterlimit="2.613" d="M9.128-89.329    c36.348-49.535,24.637-86.066-14.789-81.73c-3.691-25.184,19.098-16.312,29.578-17.961c16.832-9.902,49.066,4.34,50.516,17.961    c1.223,32.824,11.699,52.012,18.469,80.492"/>
		
			<line fill="none" stroke="#C30014" stroke-width="8.2077" stroke-miterlimit="2.613" x1="-111.266" y1="121.878" x2="218.917" y2="121.878"/>
		
			<line fill="none" stroke="#C30014" stroke-width="8.2077" stroke-miterlimit="2.613" x1="-92.344" y1="234.664" x2="199.335" y2="234.664"/>
		
			<line fill="none" stroke="#C30014" stroke-width="8.2077" stroke-miterlimit="2.613" x1="-120.551" y1="177.769" x2="227.902" y2="177.445"/>
		<path fill="#001773" d="M22.171-178.606c10.797-7.477,20.57-0.789,30.691,1.406l-14.273-0.461l-2.355,2.887l-2.074-4.105    L22.171-178.606z"/>
		<path fill="#001773" d="M-121.473-115.329c29.77-33.652,111.91-88.336,118.898-22.914c-5.137,34.055-2.883,42.098,6.77,42.719    l20.953-3.711l10.465-14.863l3.09,11.766l8.621-11.148l4.316,11.148l9.23-12.383l5.547,12.383l4.309-12.383    c8.418,5.16,16.828,10.32,25.266,15.48c26.062,9.906,17.645-22.914,14.785-33.434c-8.008-73.891,84.402-25.184,115.191,12.375    c0.828,27.703-0.301,48.852-64.074,14.242c-19.816,81.973-193.168,79.777-217.461,2.48    C-100.321-80.864-117.372-75.508-121.473-115.329"/>
		<path fill="#001773" d="M147.8-72.915c6.703-6.234,13.414-12.77,18.266-23.957c36.18,18.688,69.891,24.375,67.863-16.703    c22.586,21.594,43.312,54.941,46.184,68.484c-24.418,0.844-38.66-26.793-50.754-27.172c8.922,10.707,14.445,22.668,26.758,32.145    c-18.031,5.23-29.578-22.375-44.5-25.508c7.855,10.469,13.883,17.242,22.352,26.469c-25.227-0.527-32.891-23.051-47.027-34.418    c1.957,6.121,6.066,13.484,10.496,20.223c-9.43-2.641-18.535-11.473-25.512-16.281c0.023,4.148,6.516,8.922,9.613,13.074    C167.007-58.09,158.011-67.665,147.8-72.915"/>
		<path fill="#001773" d="M-39.266-70.614c-6.707-6.238-13.422-12.773-18.27-23.965c-36.191,18.691-69.891,24.387-67.871-16.703    c-22.582,21.598-43.32,54.941-46.188,68.484c24.422,0.852,38.664-26.785,50.758-27.164c-8.922,10.715-14.449,22.66-26.754,32.133    c18.02,5.227,29.566-22.363,44.492-25.496c-7.855,10.473-13.883,17.234-22.363,26.477c25.238-0.539,32.906-23.062,47.047-34.43    c-1.965,6.125-6.078,13.488-10.508,20.227c9.43-2.641,18.551-11.48,25.508-16.281c-0.012,4.148-6.504,8.926-9.602,13.074    C-58.489-55.786-49.497-65.364-39.266-70.614"/>
		<path fill="#001773" d="M146.488-67.008c11.562,9.426,25.723,16.668,39.988,15.352c5.664,3.188,11.371,5.062,17.367,5.246    c10.535,9.734,34.895,18.492,40.676,13.637c-2.371-2.555-2.457-2.652-4.055-5.113c8.969,5.457,25.176,5.227,29.332,2.566    c-4.844-4.098-6.539-5.367-8.34-7.949c7.172,2.324,13.461,2.801,20.762,2.629c25.664,55.734,38.934,150.055-18.93,236.625    c15.02-68.215,18.266-135.105-10.445-181.023c9.367,40.668,16.109,80.68,9.797,128.555c-5.215-24.047-12.398-34.973-19.566-49.848    c1.965-33.887-8.48-66.453-19.574-88.535c5.871,28.633,12.391,53.344,11.742,80.012c-7.828-7.879-15.652-15.742-23.473-23.617    c-1.105-29.504-6.75-55.09-15.02-78.688c4.996,27.535,8.047,49.184,7.832,74.758c-6.52-5.465-13.711-8.965-20.238-14.426    c-2.824-23.172-2.391-48.965-14.355-69.52c6.758,25.574,5.66,44.598,8.484,66.891c-26.328-9.398-26.527-42.414-35.895-67.551    C143.89-40.344,145.183-53.68,146.488-67.008"/>
		<path fill="#001773" d="M-37.969-64.715c-11.559,9.426-25.711,16.68-39.98,15.352c-5.66,3.195-11.371,5.07-17.363,5.25    c-10.535,9.738-34.902,18.488-40.684,13.637c2.387-2.555,2.449-2.648,4.062-5.109c-8.961,5.461-25.172,5.227-29.34,2.559    c4.848-4.105,6.551-5.367,8.34-7.938c-7.18,2.316-13.449,2.793-20.754,2.613c-25.668,55.75-38.938,150.062,18.926,236.621    c-15.016-68.203-18.273-135.098,10.434-181.004c-9.355,40.664-16.098,80.676-9.785,128.547    c5.215-24.047,12.395-34.984,19.574-49.844c-1.961-33.887,8.48-66.461,19.578-88.539c-5.875,28.633-12.402,53.332-11.75,80.016    c7.84-7.871,15.66-15.75,23.496-23.617c1.086-29.508,6.734-55.086,15.012-78.695c-5.008,27.543-8.055,49.188-7.84,74.758    c6.527-5.465,13.703-8.957,20.227-14.422C-72.985,22.3-73.418-3.5-61.461-24.051c-6.738,25.578-5.645,44.598-8.473,66.898    c26.32-9.398,26.531-42.418,35.891-67.555C-35.36-38.047-36.649-51.375-37.969-64.715"/>
		<path fill="#001773" d="M388.39,76.683l-0.363,5.215l-15.34-1.059l-23.969,12.605l0.465-6.531l18.832-9.004l-17.402-11.457    l0.422-6.121l21.645,15.238L388.39,76.683z M382.98,118.539l-33.211-5.867l-2.117,11.961l-4.586-0.812l5.133-29.094l4.59,0.812    l-2.109,11.969l33.219,5.855L382.98,118.539z M377.519,142.402l-36.914-10.605l1.449-5.016l36.879,10.605L377.519,142.402z     M329.324,167.046l4.598-14.191c0.754-2.301,1.402-3.965,1.961-4.977c0.539-1.031,1.195-1.891,1.93-2.598    c1.336-1.285,2.891-2.066,4.656-2.371c1.766-0.32,3.672-0.137,5.691,0.527c1.973,0.629,3.52,1.609,4.645,2.895    c1.121,1.301,1.797,2.91,2.059,4.848c0.871-1.293,1.855-2.094,3-2.391c1.117-0.293,2.844-0.145,5.133,0.441l6.164,1.531    c1.316,0.34,2.332,0.477,3.059,0.418c0.715-0.039,1.297-0.273,1.715-0.703l1.02,0.324l-1.852,5.742    c-0.93,0.223-2.645,0.008-5.195-0.617c-0.066-0.031-0.117-0.043-0.148-0.059l-4.855-1.246c-2.504-0.617-4.246-0.617-5.273,0.027    c-1.008,0.637-2.07,2.715-3.207,6.234l-2.613,8.027l15.629,5.102l-1.586,4.914L329.324,167.046z M335.207,163.57l12.367,4.027    l2.754-8.496c0.988-3.066,1.195-5.391,0.609-6.988c-0.57-1.586-2.02-2.754-4.324-3.52c-2.168-0.703-3.891-0.605-5.176,0.297    c-1.281,0.898-2.438,2.977-3.477,6.184L335.207,163.57z M335.285,208.781l-21.41-10.473l2.281-4.695l21.469,10.488    c3.227,1.586,5.961,2.043,8.203,1.352c2.234-0.68,4.105-2.508,5.559-5.52c1.449-2.969,1.734-5.574,0.891-7.793    c-0.863-2.25-2.883-4.133-6.066-5.684l-21.461-10.492l2.301-4.723l21.406,10.465c4.625,2.266,7.547,5.156,8.75,8.719    c1.215,3.539,0.695,7.629-1.566,12.262c-2.098,4.312-4.844,6.977-8.246,8.016C344.003,211.695,339.968,211.074,335.285,208.781     M329.113,219.042l2.676-4.293c3.848,2.668,6.16,6.008,6.953,10.004c0.766,3.98-0.086,7.969-2.566,11.957    c-2.871,4.598-6.664,7.211-11.418,7.859c-4.75,0.648-9.883-0.754-15.414-4.211c-5.105-3.195-8.301-7.098-9.59-11.703    c-1.305-4.613-0.492-9.242,2.391-13.883c2.301-3.676,5.133-6.109,8.504-7.266c3.371-1.172,6.801-0.91,10.332,0.777l-2.715,4.34    c-2.395-0.934-4.676-0.988-6.785-0.16c-2.125,0.828-3.965,2.473-5.508,4.953c-2.074,3.301-2.516,6.602-1.332,9.875    c1.18,3.266,3.883,6.227,8.094,8.871c3.98,2.496,7.766,3.547,11.352,3.145c3.586-0.375,6.355-2.156,8.301-5.289    c1.676-2.66,2.211-5.375,1.613-8.117C333.394,223.16,331.777,220.875,329.113,219.042 M303.664,278.125l-29.41-24.734    l17.582-21.008l3.66,3.066l-14.266,17.059l8.77,7.379l13.184-15.746l3.43,2.883l-13.164,15.758l9.852,8.289l14.559-17.395    l3.68,3.094L303.664,278.125z M267.082,296.207l3.617-3.48c1.969,1.949,4.172,2.902,6.613,2.844    c2.422-0.051,4.742-1.141,6.906-3.219c2.145-2.094,3.395-4.16,3.754-6.262c0.352-2.078-0.207-3.91-1.703-5.469    c-2.031-2.113-5.898-1.484-11.602,1.895c-0.324,0.207-0.59,0.359-0.766,0.469c-4.617,2.734-8.055,4.145-10.312,4.207    c-2.27,0.066-4.367-0.895-6.316-2.914c-2.371-2.457-3.375-5.32-3.023-8.562c0.367-3.227,2.031-6.305,5.012-9.191    c3.074-2.961,6.223-4.492,9.484-4.609c3.262-0.133,6.223,1.18,8.906,3.895l-3.566,3.488c-1.922-1.734-3.926-2.539-6.004-2.449    c-2.078,0.105-4.105,1.117-6.078,3.004c-1.82,1.793-2.902,3.605-3.215,5.48c-0.324,1.871,0.16,3.48,1.449,4.812    c2.078,2.152,5.883,1.539,11.445-1.797c0.828-0.496,1.473-0.871,1.922-1.133c0.078-0.07,0.246-0.16,0.484-0.297    c3.66-2.156,6.375-3.301,8.152-3.418c1.34-0.09,2.637,0.117,3.871,0.648c1.262,0.508,2.418,1.332,3.477,2.445    c2.578,2.648,3.668,5.703,3.285,9.125c-0.395,3.422-2.207,6.711-5.461,9.84c-3.344,3.25-6.77,4.938-10.281,5.039    C273.617,300.714,270.265,299.25,267.082,296.207 M235.867,335.609l-22.035-31.504l11.984-8.41    c4.391-3.078,8.672-4.113,12.828-3.125c4.16,0.988,7.965,3.965,11.422,8.918c3.586,5.125,5.148,9.953,4.727,14.48    c-0.414,4.547-2.793,8.328-7.113,11.367L235.867,335.609z M228,299.578l-7.348,5.164l16.793,24.023l7.344-5.145    c3.145-2.203,4.797-4.898,4.977-8.082c0.184-3.168-1.129-6.77-3.941-10.77c-2.672-3.832-5.547-6.195-8.605-7.094    C234.156,296.785,231.085,297.417,228,299.578 M199.933,355.929l-17.422-34.277l5.082-2.605l28.629,16.73    c0.637,0.379,1.215,0.73,1.715,1.078c0.496,0.34,0.941,0.691,1.312,1.039l-14.121-27.793l4.43-2.266l17.434,34.281l-5.047,2.574    l-29.152-16.914c-0.453-0.262-0.902-0.555-1.297-0.883c-0.422-0.289-0.852-0.637-1.281-1.016l14.137,27.801L199.933,355.929z     M162.324,371.738l-1.145-41.012l5.328-2.172l27.652,30.309l-5.258,2.117l-8.051-9.133l-14.012,5.68l0.5,12.184L162.324,371.738z     M166.636,352.757l11.094-4.5l-11.84-13.504L166.636,352.757z M135.691,378.851l-5.09,1.266l-3.723-14.945l-19.375-18.934    l6.344-1.586l14.371,15.172l5.488-20.129l5.941-1.488l-7.773,25.34L135.691,378.851z M78.597,350.132l14.738-2.086    c2.371-0.328,4.172-0.473,5.32-0.422c1.156,0.055,2.223,0.262,3.184,0.586c1.727,0.676,3.117,1.727,4.168,3.172    c1.055,1.453,1.742,3.246,2.035,5.363c0.285,2.051,0.098,3.883-0.578,5.449c-0.676,1.586-1.805,2.902-3.441,3.98    c1.531,0.203,2.688,0.754,3.453,1.652c0.766,0.895,1.379,2.508,1.871,4.824l1.312,6.219c0.273,1.332,0.598,2.312,0.961,2.934    c0.363,0.625,0.824,1.055,1.41,1.246l0.121,1.066l-5.953,0.844c-0.594-0.738-1.172-2.391-1.715-4.961    c-0.016-0.078-0.035-0.129-0.035-0.156l-1.004-4.918c-0.547-2.531-1.309-4.098-2.348-4.734c-1.004-0.637-3.336-0.688-6.988-0.18    l-8.367,1.18l2.301,16.316l-5.117,0.715L78.597,350.132z M84.277,353.894l1.809,12.906l8.816-1.246    c3.195-0.457,5.379-1.285,6.539-2.496c1.176-1.219,1.586-3.039,1.254-5.453c-0.324-2.273-1.168-3.762-2.52-4.523    c-1.375-0.754-3.742-0.902-7.086-0.43L84.277,353.894z M58.949,388.898l-1.188-33.789l-12.102,0.43l-0.164-4.664l29.465-1.039    l0.168,4.676l-12.121,0.422l1.184,33.781L58.949,388.898z M13.363,373.699l5.008,0.441c-0.188,2.781,0.539,5.078,2.188,6.887    c1.637,1.793,3.961,2.832,6.957,3.09c2.973,0.273,5.355-0.156,7.172-1.246c1.812-1.09,2.812-2.727,3.004-4.879    c0.246-2.93-2.762-5.438-9.027-7.527c-0.371-0.117-0.664-0.207-0.871-0.285c-5.086-1.691-8.395-3.359-9.93-5.043    c-1.543-1.637-2.188-3.883-1.941-6.676c0.293-3.402,1.781-6.047,4.453-7.906c2.676-1.852,6.082-2.602,10.219-2.234    c4.23,0.371,7.465,1.75,9.691,4.145c2.227,2.383,3.199,5.477,2.898,9.281l-4.961-0.414c0.047-2.574-0.648-4.625-2.094-6.125    c-1.441-1.516-3.531-2.383-6.246-2.633c-2.539-0.219-4.621,0.164-6.246,1.145c-1.625,0.988-2.508,2.418-2.672,4.27    c-0.262,2.969,2.691,5.461,8.871,7.469c0.902,0.305,1.609,0.539,2.102,0.719c0.109,0.016,0.281,0.078,0.547,0.164    c4.023,1.352,6.664,2.668,7.914,3.93c0.953,0.949,1.648,2.066,2.07,3.363c0.426,1.281,0.57,2.684,0.438,4.211    c-0.32,3.703-1.898,6.52-4.73,8.477c-2.832,1.953-6.496,2.727-11,2.344c-4.637-0.414-8.152-1.891-10.543-4.48    C14.25,381.609,13.16,378.117,13.363,373.699 M-23.262,365.058l4.543-23.434l5.113,0.988l-4.555,23.5    c-0.688,3.527-0.414,6.305,0.824,8.289c1.238,2,3.484,3.316,6.766,3.961c3.238,0.637,5.812,0.234,7.742-1.168    c1.934-1.406,3.238-3.848,3.91-7.34l4.555-23.488l5.148,1l-4.543,23.441c-0.984,5.059-3.023,8.621-6.137,10.723    c-3.098,2.078-7.184,2.637-12.227,1.664c-4.715-0.934-7.988-2.883-9.848-5.91C-23.836,374.257-24.262,370.179-23.262,365.058     M-64.075,367.14l12.496-36.363l13.824,4.762c5.07,1.746,8.422,4.605,10.07,8.559c1.633,3.949,1.477,8.789-0.488,14.508    c-2.035,5.91-5.008,10.016-8.918,12.34c-3.902,2.32-8.363,2.629-13.355,0.902L-64.075,367.14z M-39.602,339.597l-8.492-2.93    l-9.52,27.742l8.473,2.922c3.625,1.25,6.777,1.016,9.445-0.707c2.672-1.727,4.801-4.891,6.383-9.527    c1.523-4.418,1.75-8.145,0.672-11.148C-33.723,342.949-36.051,340.824-39.602,339.597 M-101.532,350.406l16.227-34.867    l5.176,2.418l4.469,32.918c0.098,0.727,0.172,1.402,0.211,2c0.035,0.625,0.027,1.168,0,1.676l13.152-28.254l4.508,2.098    l-16.223,34.875l-5.129-2.391l-4.648-33.453c-0.074-0.52-0.113-1.027-0.117-1.559c-0.027-0.512-0.02-1.066,0.02-1.637    l-13.156,28.273L-101.532,350.406z M-115.661,342.312l19.773-32.984l4.477,2.691l-19.781,32.977L-115.661,342.312z     M-153.157,316.332l22.57-31.113l20.848,15.172l-2.832,3.926l-16.633-12.121l-6.773,9.352l14.527,10.562l-2.766,3.805    l-14.52-10.578l-10.203,14.074L-153.157,316.332z M-173.422,271.843c4.398-4.566,9.008-7.035,13.793-7.359    c4.805-0.312,9.254,1.488,13.359,5.469c4.086,3.949,6.051,8.328,5.879,13.121c-0.172,4.809-2.469,9.512-6.879,14.082    c-4.41,4.566-9.004,7.035-13.793,7.375c-4.781,0.344-9.219-1.465-13.312-5.414c-4.102-3.973-6.066-8.363-5.914-13.191    C-180.129,281.113-177.833,276.41-173.422,271.843 M-169.543,275.605c-3.426,3.531-5.281,7.094-5.574,10.664    c-0.285,3.582,1.012,6.77,3.902,9.562c2.867,2.781,6.082,3.957,9.617,3.535c3.547-0.426,7.031-2.418,10.453-5.965    c3.422-3.551,5.285-7.117,5.586-10.664c0.297-3.574-0.984-6.738-3.867-9.516c-2.887-2.793-6.105-3.996-9.664-3.582    C-162.633,270.058-166.125,272.05-169.543,275.605 M-207.875,237.398l18.777-14.691l3.203,4.105l-18.816,14.742    c-2.832,2.211-4.441,4.477-4.809,6.797c-0.371,2.312,0.461,4.805,2.516,7.422c2.035,2.617,4.23,4.023,6.609,4.23    c2.383,0.199,4.965-0.793,7.75-2.977l18.824-14.73l3.219,4.129l-18.77,14.707c-4.059,3.172-7.926,4.52-11.645,4.055    c-3.715-0.469-7.152-2.715-10.32-6.781c-2.953-3.789-4.145-7.434-3.57-10.934C-214.329,243.972-211.977,240.609-207.875,237.398     M-240.321,212.664l40.379-6.848l2.875,4.996l-26.102,31.652l-2.812-4.91l7.895-9.273l-7.555-13.121l-11.98,2.195    L-240.321,212.664z M-220.946,214.312l5.98,10.387l11.695-13.645L-220.946,214.312z M-253.821,183.421l35.07-15.652l11.133,25.043    l-4.355,1.965l-9.039-20.344l-10.469,4.676l8.34,18.785l-4.09,1.824l-8.348-18.773l-11.762,5.242l9.207,20.734l-4.383,1.961    L-253.821,183.421z M-230.02,135.316l4.605,14.188c0.738,2.285,1.188,4.012,1.34,5.168c0.152,1.145,0.133,2.234-0.039,3.234    c-0.344,1.82-1.141,3.371-2.379,4.672c-1.246,1.293-2.887,2.266-4.918,2.918c-1.969,0.648-3.789,0.777-5.457,0.387    c-1.672-0.387-3.168-1.285-4.504-2.699c0.055,1.543-0.281,2.777-1.027,3.699c-0.742,0.898-2.219,1.789-4.414,2.672l-5.887,2.383    c-1.258,0.508-2.164,0.988-2.723,1.457c-0.551,0.465-0.883,0.984-0.977,1.598l-1.016,0.328l-1.859-5.742    c0.609-0.719,2.133-1.562,4.57-2.559c0.07-0.012,0.113-0.043,0.148-0.043l4.656-1.852c2.395-0.969,3.801-2.008,4.25-3.125    c0.445-1.105,0.094-3.43-1.043-6.926l-2.609-8.055l-15.637,5.094l-1.598-4.91L-230.02,135.316z M-232.731,141.57l-12.371,4.035    l2.758,8.496c0.992,3.066,2.195,5.066,3.598,6.016c1.398,0.949,3.254,1.023,5.578,0.285c2.156-0.703,3.488-1.805,4.004-3.281    c0.496-1.48,0.223-3.84-0.812-7.059L-232.731,141.57z M-262.11,104.753l23.219-5.383l1.172,5.098l-23.262,5.387    c-3.496,0.805-5.914,2.18-7.223,4.117c-1.324,1.949-1.605,4.539-0.852,7.793c0.738,3.234,2.141,5.438,4.203,6.641    c2.07,1.195,4.828,1.391,8.281,0.582l23.266-5.391l1.176,5.121l-23.211,5.371c-5.012,1.156-9.098,0.746-12.273-1.242    c-3.172-2-5.332-5.508-6.492-10.523c-1.082-4.688-0.617-8.48,1.379-11.418C-270.723,107.972-267.18,105.929-262.11,104.753     M-274.504,75.246l0.742,10.574c0.176,2.664,0.914,4.625,2.172,5.938c1.273,1.281,3.012,1.844,5.246,1.688    c2.223-0.16,3.809-0.973,4.754-2.441c0.934-1.48,1.309-3.707,1.102-6.715l-0.695-9.977L-274.504,75.246z M-256.922,74.011    l0.633,9.145c0.191,2.699,0.812,4.645,1.867,5.848c1.07,1.195,2.633,1.715,4.688,1.578c1.941-0.137,3.34-0.836,4.195-2.125    c0.844-1.285,1.195-3.18,1.016-5.703l-0.668-9.559L-256.922,74.011z M-279.493,70.355l38.301-2.684l1.078,15.484    c0.285,3.977-0.285,7.016-1.711,9.109c-1.43,2.105-3.691,3.262-6.793,3.469c-1.992,0.148-3.719-0.195-5.18-1.02    c-1.465-0.828-2.625-2.113-3.496-3.891c-0.266,2.352-1.168,4.207-2.711,5.598c-1.523,1.402-3.527,2.188-6.004,2.363    c-3.508,0.246-6.367-0.727-8.586-2.902c-2.23-2.176-3.48-5.273-3.766-9.27L-279.493,70.355z"/>
		<path fill="#FFFFFF" d="M-11.44-25.859H3.058v188.263l-14.498-13.002V-25.859z M17.555-25.859h14.498v214.187L17.555,175.47    V-25.859z M75.552-25.859h14.494v201.535l-14.494,12.865V-25.859z M104.529-25.859h14.498v175.427l-14.498,12.924V-25.859z     M-25.938-25.859h14.498v175.3l-14.498-13.006V-25.859z M3.057-25.859h14.498v201.226L3.057,162.353V-25.859z M32.053-25.859    h14.998v227.14l-14.998-13.006V-25.859z M61.057-25.859h14.494v214.388l-14.494,13.088V-25.859z M90.046-25.859h14.482v188.406    l-14.482,12.873V-25.859z M119.027-25.859h14.504v162.63l-14.504,12.682V-25.859z M-40.436-25.859h14.498v162.348    c-4.583-4.888-7.889-8.612-11.698-13.632c-1.156-1.647-2.548-4.064-2.8-8.299V-25.859z M148.029-25.686h-14.498v162.349    c4.578-4.896,7.885-8.613,11.693-13.629c1.141-1.658,2.557-4.064,2.805-8.295V-25.686z"/>
		<polygon fill="#C30014" points="-12.1,-27.008 2.545,-27.008 2.545,163.156 -12.1,150.023   "/>
		<polygon fill="#C30014" points="17.188,-27.008 31.833,-27.008 31.833,189.343 17.188,176.355   "/>
		<polygon fill="#C30014" points="75.772,-27.008 90.413,-27.008 90.413,176.562 75.772,189.558   "/>
		<polygon fill="#C30014" points="105.042,-27.008 119.686,-27.008 119.686,150.191 105.042,163.246   "/>
		<polygon fill="#FFFFFF" points="-26.744,-27.008 -12.099,-27.008 -12.099,150.062 -26.744,136.925   "/>
		<polygon fill="#FFFFFF" points="2.544,-27.008 17.189,-27.008 17.189,176.25 2.544,163.105   "/>
		<polygon fill="#FFFFFF" points="31.833,-27.008 46.478,-27.008 46.478,202.425 31.833,189.289   "/>
		<polygon fill="#FFFFFF" points="61.13,-27.008 75.771,-27.008 75.771,189.546 61.13,202.765   "/>
		<polygon fill="#FFFFFF" points="90.413,-27.008 105.042,-27.008 105.042,163.3 90.413,176.304   "/>
		<polygon fill="#FFFFFF" points="119.686,-27.008 134.335,-27.008 134.335,137.265 119.686,150.074   "/>
		<path fill="#C30014" d="M-41.388-27.008h14.645V136.98c-4.629-4.938-7.969-8.699-11.816-13.77    c-1.168-1.664-2.574-4.105-2.828-8.383V-27.008z"/>
		<path fill="#C30014" d="M148.98-26.833h-14.645v163.988c4.625-4.945,7.965-8.699,11.812-13.766    c1.152-1.676,2.582-4.105,2.832-8.379V-26.833z"/>
		<polygon fill="#C30014" points="46.486,-27.008 61.13,-27.008 61.13,291.687 46.479,291.648   "/>
		<rect x="-41.387" y="-75.708" fill="#FFFFFF" width="190.355" height="50.777"/>
		<polygon fill="#FFFFFF" points="-25.477,-56.993 -11.645,-56.993 -7.36,-70.172 -3.09,-56.993 10.761,-56.993 -0.43,-48.825     3.855,-35.641 -7.36,-43.797 -18.579,-35.641 -14.29,-48.825   "/>
		<polygon fill="none" stroke="#001773" stroke-width="3.1261" stroke-miterlimit="2.613" points="-25.477,-56.993 -11.645,-56.993     -7.36,-70.172 -3.09,-56.993 10.761,-56.993 -0.43,-48.825 3.855,-35.641 -7.36,-43.797 -18.579,-35.641 -14.29,-48.825   "/>
		<polygon fill="#FFFFFF" points="15.46,-56.993 29.304,-56.993 33.582,-70.172 37.859,-56.993 51.699,-56.993 40.507,-48.825     44.789,-35.641 33.582,-43.797 22.359,-35.641 26.644,-48.825   "/>
		<polygon fill="none" stroke="#001773" stroke-width="3.1261" stroke-miterlimit="2.613" points="15.46,-56.993 29.304,-56.993     33.582,-70.172 37.859,-56.993 51.699,-56.993 40.507,-48.825 44.789,-35.641 33.582,-43.797 22.359,-35.641 26.644,-48.825   "/>
		<polygon fill="#FFFFFF" points="56.406,-56.993 70.23,-56.993 74.511,-70.172 78.792,-56.993 92.64,-56.993 81.449,-48.825     85.718,-35.641 74.511,-43.797 63.296,-35.641 67.589,-48.825   "/>
		<polygon fill="none" stroke="#001773" stroke-width="3.1261" stroke-miterlimit="2.613" points="56.406,-56.993 70.23,-56.993     74.511,-70.172 78.792,-56.993 92.64,-56.993 81.449,-48.825 85.718,-35.641 74.511,-43.797 63.296,-35.641 67.589,-48.825   "/>
		<polygon fill="#FFFFFF" points="97.332,-56.993 111.179,-56.993 115.464,-70.172 119.734,-56.993 133.57,-56.993 122.39,-48.825     126.675,-35.641 115.464,-43.797 104.23,-35.641 108.531,-48.825   "/>
		<polygon fill="none" stroke="#001773" stroke-width="3.1261" stroke-miterlimit="2.613" points="97.332,-56.993 111.179,-56.993     115.464,-70.172 119.734,-56.993 133.57,-56.993 122.39,-48.825 126.675,-35.641 115.464,-43.797 104.23,-35.641 108.531,-48.825       "/>
	</g>
</g>
</svg>